<svg xmlns="http://www.w3.org/2000/svg" viewBox="0 0 775.77 228.32"><defs><style>.cls-1{fill:#2ac98b;}.cls-1,.cls-2{fill-rule:evenodd;}.cls-2{fill:#323a38;}</style></defs><title>logo-黑</title><g id="图层_2" data-name="图层 2"><g id="图层_1-2" data-name="图层 1"><polygon class="cls-1" points="0 64.12 0 170.46 30.79 188.21 30.79 112.14 61.47 129.86 61.47 205.88 92.27 223.63 92.27 117.28 0 64.12"/><path class="cls-1" d="M69.94,54.39l30.85-18.08,38.33,22.43-30.83,18ZM100.83,0l-93,54.41,100.29,58.8,0,115.11,30.42-17.72V94.15l30.74-18V192.5l30.87-18.17V58.11Z"/><polygon class="cls-2" points="335.64 137.07 335.06 137.16 277.78 47.97 250.61 47.97 250.61 180.35 277.78 180.35 277.78 91.16 278.37 91.07 335.64 180.35 362.84 180.35 362.84 47.97 335.64 47.97 335.64 137.07"/><path class="cls-2" d="M685.17,124.53c0-26.28-20.78-47.78-46.17-47.78h-2.63c-25.39,0-46.17,21.5-46.17,47.78v8c0,26.28,20.78,47.78,46.17,47.78H639c25.39,0,46.17-21.5,46.17-47.78Zm-46.61,27.08c-10.61.43-19.64-8.21-20.06-19.19l-.23-6.17c-.42-11,7.93-20.33,18.54-20.76s19.64,8.21,20.06,19.19l.23,6.17C657.52,141.83,649.18,151.17,638.56,151.61Z"/><path class="cls-2" d="M440.42,80.3A44.46,44.46,0,0,0,423,76.75H420.4c-25.39,0-46.17,21.5-46.17,47.78v8c0,26.28,20.78,47.78,46.17,47.78H423a44.46,44.46,0,0,0,17.4-3.55v3.55h28.77V76.75H440.42Zm-17.83,71.27c-10.61.44-19.62-8.19-20-19.16l-.23-6.16c-.42-11,7.92-20.3,18.52-20.73,9.44-.38,17.61,6.43,19.58,15.67v15.73A19.51,19.51,0,0,1,422.59,151.57Z"/><path class="cls-2" d="M536.64,76.75H534a44.35,44.35,0,0,0-18,3.82V48H487.22V180.35H516v-3.82a44.35,44.35,0,0,0,18,3.82h2.62c25.4,0,46.18-21.5,46.18-47.78v-8C582.82,98.25,562,76.75,536.64,76.75Zm17.85,55.66c-.42,11-9.43,19.6-20,19.16-9.85-.4-17.73-8.48-18.47-18.42v-3.68l.19-4.78c.41-11,9.42-19.6,20-19.17s18.93,9.76,18.51,20.73Z"/><polygon class="cls-2" points="775.77 76.75 747.5 76.75 728.29 106.59 709.07 76.75 680.8 76.75 714.15 128.55 680.8 180.35 709.07 180.35 728.29 150.5 747.5 180.35 775.77 180.35 742.42 128.55 775.77 76.75"/></g></g></svg>